<svg xmlns="http://www.w3.org/2000/svg" width="399.974" height="490.919" viewBox="0 0 399.974 490.919">
  <g id="men-clothes-svgrepo-com_1_" data-name="men-clothes-svgrepo-com (1)" transform="translate(-45.472)">
    <g id="Group_1" data-name="Group 1">
      <path id="Path_7" data-name="Path 7" d="M407.455,101.1l10.754-34.583a45.249,45.249,0,0,0-18.072-50.86L386.65,6.712A46.016,46.016,0,0,0,363.816,0L126.461.032a39.909,39.909,0,0,0-22.2,6.712l-13.436,8.9a45.232,45.232,0,0,0-18.1,50.859l10.754,34.584a40.7,40.7,0,0,0-38.007,40.529V450.1a40.821,40.821,0,0,0,40.819,40.819H213.839l8.747-171.5L197.833,294.66a12.092,12.092,0,0,1,0-17.105l38.844-38.844a12.1,12.1,0,0,1,17.11,0l38.848,38.844a12.089,12.089,0,0,1,.008,17.107l-24.559,24.562,8.777,171.7H404.629A40.823,40.823,0,0,0,445.446,450.1V141.617A40.688,40.688,0,0,0,407.455,101.1ZM386.8,56.737,337.677,214.648a12.1,12.1,0,0,1-20.5,4.546L268.61,165.859a12.1,12.1,0,0,1-.536-15.662L358.8,35.676a7.252,7.252,0,0,1,5.67-2.749,7.171,7.171,0,0,1,4,1.222l13.465,8.913A12.1,12.1,0,0,1,386.8,56.737Zm-66.683-25.2-74.649,94.233L170.823,31.532h149.29ZM109,43.063l13.456-8.913a7.172,7.172,0,0,1,4-1.222,7.249,7.249,0,0,1,5.668,2.749L222.851,150.2a12.093,12.093,0,0,1-.536,15.662L173.76,219.179a12.088,12.088,0,0,1-20.5-4.547l-49.125-157.9A12.091,12.091,0,0,1,109,43.063Z" fill="#fff"/>
    </g>
  </g>
</svg>
