<svg xmlns="http://www.w3.org/2000/svg" width="160.646" height="280.616" viewBox="0 0 160.646 280.616">
  <g id="sexy-female-dress-black-shape-svgrepo-com_1_" data-name="sexy-female-dress-black-shape-svgrepo-com (1)" transform="translate(-59.983 0.003)">
    <g id="Group_2" data-name="Group 2">
      <path id="Path_8" data-name="Path 8" d="M95.321,280.613a34.989,34.989,0,0,0,22.494-8.285,34.659,34.659,0,0,0,44.974,0,34.97,34.97,0,0,0,56.223-17.068h.3c0-.29-.021-.554-.021-.849a32.284,32.284,0,0,0-.673-20.439C212.623,138,168.184,78.664,168.184,78.664l27.89-44.923a42.117,42.117,0,0,0-2.615-3.5A54.4,54.4,0,0,0,202.35,0H189.96a42.412,42.412,0,0,1-5.867,21.862c-20.36-11.428-43.784,11.881-43.784,11.881-11.13-19.475-28.878-15.614-41.36-9.39A42.393,42.393,0,0,1,91.557,0H79.166a54.526,54.526,0,0,0,9.2,30.769c-2.395,1.735-3.822,2.975-3.822,2.975l27.879,44.923S67.983,138,62,233.975a32.3,32.3,0,0,0-.673,20.439c0,.3-.021.563-.021.849h.29A35.23,35.23,0,0,0,95.321,280.613Z" fill="#fff"/>
    </g>
  </g>
</svg>
