<svg xmlns="http://www.w3.org/2000/svg" width="512" height="404.622" viewBox="0 0 512 404.622">
  <g id="shop-1-svgrepo-com" transform="translate(0 -53.689)">
    <path id="Path_1" data-name="Path 1" d="M33.394,458.311H275.641V318.635H391.964V458.311h86.642V222.61H33.394Zm87.3-139.676h69.838v69.838H120.69Z" fill="#fff"/>
    <path id="Path_2" data-name="Path 2" d="M310.836,368.565a10.644,10.644,0,0,0-10.64,10.644v35.46a10.639,10.639,0,0,0,21.277,0v-35.46A10.644,10.644,0,0,0,310.836,368.565Z" fill="#fff"/>
    <path id="Path_3" data-name="Path 3" d="M230.1,53.689H158.593L143.977,196.421H226.22Z" fill="#fff"/>
    <path id="Path_4" data-name="Path 4" d="M368.026,196.421,353.408,53.689H281.9l3.885,142.732Z" fill="#fff"/>
    <path id="Path_5" data-name="Path 5" d="M512,196.421,478.606,53.689h-73.4l22.384,142.732Z" fill="#fff"/>
    <path id="Path_6" data-name="Path 6" d="M106.794,53.689h-73.4L0,196.421H84.409Z" fill="#fff"/>
  </g>
</svg>
