<svg xmlns="http://www.w3.org/2000/svg" width="24" height="22" viewBox="0 0 24 22">
  <g id="shop-svgrepo-com" transform="translate(0 -1029.4)">
    <path id="Path_1" data-name="Path 1" d="M0,1050.4H24l-4-6H4l-4,6" fill="#95a5a6"/>
    <g id="Group_1" data-name="Group 1">
      <rect id="Rectangle_1" data-name="Rectangle 1" width="20" height="17" transform="translate(2 1032.4)" fill="#f1c40f"/>
      <rect id="Rectangle_2" data-name="Rectangle 2" width="9" height="9" transform="translate(4 1039.4)" fill="#ecf0f1"/>
      <rect id="Rectangle_3" data-name="Rectangle 3" width="6" height="9" transform="translate(14 1040.4)" fill="#ecf0f1"/>
      <rect id="Rectangle_4" data-name="Rectangle 4" width="20" height="4" transform="translate(2 1037.4)" fill="#f39c12"/>
      <rect id="Rectangle_5" data-name="Rectangle 5" width="6" height="1" transform="translate(14 1039.4)" fill="#bdc3c7"/>
      <rect id="Rectangle_6" data-name="Rectangle 6" width="9" height="2" transform="translate(4 1039.4)" fill="#bdc3c7"/>
      <path id="Path_2" data-name="Path 2" d="M0,1036.4v1.5a1.519,1.519,0,0,0,1.5,1.5,1.519,1.519,0,0,0,1.5-1.5v-1.5H0Z" fill="#c0392b"/>
      <path id="Path_3" data-name="Path 3" d="M3,1036.4v1.5a1.5,1.5,0,0,0,3,0v-1.5H3Z" fill="#bdc3c7"/>
      <path id="Path_4" data-name="Path 4" d="M6,1036.4v1.5a1.5,1.5,0,0,0,3,0v-1.5H6Z" fill="#c0392b"/>
      <path id="Path_5" data-name="Path 5" d="M9,1036.4v1.5a1.5,1.5,0,0,0,3,0v-1.5H9Z" fill="#bdc3c7"/>
      <path id="Path_6" data-name="Path 6" d="M12,1036.4v1.5a1.5,1.5,0,0,0,3,0v-1.5H12Z" fill="#c0392b"/>
      <path id="Path_7" data-name="Path 7" d="M15,1036.4v1.5a1.5,1.5,0,0,0,3,0v-1.5H15Z" fill="#bdc3c7"/>
      <path id="Path_8" data-name="Path 8" d="M18,1036.4v1.5a1.5,1.5,0,0,0,3,0v-1.5H18Z" fill="#c0392b"/>
      <path id="Path_9" data-name="Path 9" d="M21,1036.4v1.5a1.5,1.5,0,0,0,3,0v-1.5H21Z" fill="#bdc3c7"/>
      <path id="Path_10" data-name="Path 10" d="M10,1032.4h2v4H9Z" fill="#ecf0f1"/>
      <path id="Path_11" data-name="Path 11" d="M12,1032.4h2l1,4H12Z" fill="#e74c3c"/>
      <path id="Path_12" data-name="Path 12" d="M5,1032.4H8l-2,4H3Z" fill="#ecf0f1"/>
      <path id="Path_13" data-name="Path 13" d="M8,1032.4h2l-1,4H6Z" fill="#e74c3c"/>
      <path id="Path_14" data-name="Path 14" d="M16,1032.4H14l1,4h3Z" fill="#ecf0f1"/>
      <path id="Path_15" data-name="Path 15" d="M19,1032.4H16l2,4h3Z" fill="#e74c3c"/>
      <path id="Path_16" data-name="Path 16" d="M2,1032.4H5l-2,4H0Z" fill="#e74c3c"/>
      <path id="Path_17" data-name="Path 17" d="M22,1032.4H19l2,4h3Z" fill="#ecf0f1"/>
      <rect id="Rectangle_7" data-name="Rectangle 7" width="4" height="8" transform="translate(15 1041.4)" fill="#3498db"/>
      <rect id="Rectangle_8" data-name="Rectangle 8" width="5" height="1" transform="translate(14 1044.4)" fill="#ecf0f1"/>
      <rect id="Rectangle_9" data-name="Rectangle 9" width="1" height="1" transform="translate(19 1040.4)" fill="#bdc3c7"/>
      <rect id="Rectangle_10" data-name="Rectangle 10" width="4" height="1" transform="translate(15 1040.4)" fill="#2980b9"/>
      <rect id="Rectangle_11" data-name="Rectangle 11" width="1" height="1" transform="translate(14 1040.4)" fill="#bdc3c7"/>
      <rect id="Rectangle_12" data-name="Rectangle 12" width="7" height="7" transform="translate(5 1040.4)" fill="#3498db"/>
    </g>
    <g id="Group_2" data-name="Group 2">
      <rect id="Rectangle_13" data-name="Rectangle 13" width="9" height="1" transform="translate(4 1043.4)" fill="#ecf0f1"/>
      <rect id="Rectangle_14" data-name="Rectangle 14" width="1" height="7" transform="translate(8 1040.4)" fill="#ecf0f1"/>
      <path id="Path_18" data-name="Path 18" d="M1,1032.4H23l-3.667-2H4.667L1,1032.4" fill="#ecf0f1"/>
    </g>
    <rect id="Rectangle_15" data-name="Rectangle 15" width="1" height="1" transform="translate(8 1040.4)" fill="#bdc3c7"/>
    <path id="Path_19" data-name="Path 19" d="M1,1031.4H23l-3.667-2H4.667L1,1031.4" fill="#bdc3c7"/>
    <g id="Group_3" data-name="Group 3">
      <rect id="Rectangle_16" data-name="Rectangle 16" width="22" height="1" transform="translate(1 1031.4)" fill="#7f8c8d"/>
      <rect id="Rectangle_17" data-name="Rectangle 17" width="4" height="3" transform="translate(15 1046.4)" fill="#2980b9"/>
      <rect id="Rectangle_18" data-name="Rectangle 18" width="24" height="1" transform="translate(0 1050.4)" fill="#7f8c8d"/>
      <path id="Path_20" data-name="Path 20" d="M5,12v1H8V12Zm4,0v1h3V12Z" transform="translate(0 1028.4)" fill="#2980b9"/>
      <path id="Path_21" data-name="Path 21" d="M5,1046.4v1H8v-1Zm4,0v1h3v-1Z" fill="#2980b9"/>
      <path id="Path_22" data-name="Path 22" d="M2,1032.4l-.5,1h3l.5-1Zm5,0-.25,1h3l.25-1Zm5,0v1h2.25l-.25-1Zm4,0,.5,1h3l-.5-1Z" fill="#c0392b"/>
      <path id="Path_23" data-name="Path 23" d="M5,1032.4l-.5,1h3l.5-1Zm5,0-.25,1H12v-1Zm4,0,.25,1H16.5l-.5-1Zm5,0,.5,1h3l-.5-1Z" fill="#bdc3c7"/>
    </g>
  </g>
</svg>
