<svg xmlns="http://www.w3.org/2000/svg" width="20" height="20" viewBox="0 0 20 20">
  <path id="microchip-f-svgrepo-com" d="M11,17.858v2a1,1,0,0,1-2,0v-2H7v2a1,1,0,0,1-2,0v-2a1,1,0,0,1,.014-.166,3.008,3.008,0,0,1-1.848-1.848A.915.915,0,0,1,3,15.858H1a1,1,0,0,1,0-2H3v-2H1a1,1,0,1,1,0-2H3v-2H1a1,1,0,0,1,0-2H3a1,1,0,0,1,.166.014A3,3,0,0,1,5.014,4.024,1.007,1.007,0,0,1,5,3.858v-2a1,1,0,0,1,2,0v2H9v-2a1,1,0,0,1,2,0v2h2v-2a1,1,0,0,1,2,0v2a1.014,1.014,0,0,1-.014.166,3,3,0,0,1,1.848,1.848A.915.915,0,0,1,17,5.858h2a1,1,0,0,1,0,2H17v2h2a1,1,0,1,1,0,2H17v2h2a1,1,0,0,1,0,2H17a1,1,0,0,1-.166-.014,3.008,3.008,0,0,1-1.848,1.848.915.915,0,0,1,.014.166v2a1,1,0,1,1-2,0v-2Zm-3-10a1,1,0,0,0-1,1v4a1,1,0,0,0,1,1h4a1,1,0,0,0,1-1v-4a1,1,0,0,0-1-1Z" transform="translate(0 -0.858)" fill="#fff"/>
</svg>
